<?xml version="1.0" encoding="iso-8859-1"?>
<!-- Generator: Adobe Illustrator 19.0.0, SVG Export Plug-In . SVG Version: 6.00 Build 0)  -->
<svg version="1.1" id="Capa_1" xmlns="http://www.w3.org/2000/svg" xmlns:xlink="http://www.w3.org/1999/xlink" x="0px" y="0px"
	 viewBox="0 0 512 512" style="enable-background:new 0 0 512 512;" xml:space="preserve">
<circle style="fill:#FFE17D;" cx="256" cy="256" r="256"/>
<path style="fill:#7D5046;" d="M169.29,239.484L169.29,239.484c-11.402,0-20.645-9.243-20.645-20.645v-16.516
	c0-11.402,9.243-20.645,20.645-20.645l0,0c11.402,0,20.645,9.243,20.645,20.645v16.516
	C189.935,230.241,180.692,239.484,169.29,239.484z"/>
<path style="fill:#9C6846;" d="M169.29,181.677c-1.414,0-2.794,0.145-4.129,0.416v28.487c0,6.841,5.546,12.387,12.387,12.387
	s12.387-5.546,12.387-12.387v-8.258C189.935,190.92,180.693,181.677,169.29,181.677z"/>
<path style="fill:#7D5046;" d="M342.71,239.484L342.71,239.484c-11.402,0-20.645-9.243-20.645-20.645v-16.516
	c0-11.402,9.243-20.645,20.645-20.645l0,0c11.402,0,20.645,9.243,20.645,20.645v16.516
	C363.355,230.241,354.112,239.484,342.71,239.484z"/>
<path style="fill:#9C6846;" d="M342.71,181.677c-1.414,0-2.794,0.145-4.129,0.416v28.487c0,6.841,5.546,12.387,12.387,12.387
	s12.387-5.546,12.387-12.387v-8.258C363.355,190.92,354.112,181.677,342.71,181.677z"/>
<path style="fill:#FFD164;" d="M293.161,474.839c-141.385,0-256-114.615-256-256c0-61.227,21.521-117.411,57.376-161.463
	C36.863,104.316,0,175.842,0,256c0,141.385,114.615,256,256,256c80.159,0,151.685-36.864,198.626-94.538
	C410.573,453.317,354.389,474.839,293.161,474.839z"/>
<path style="fill:#9C6846;" d="M255.971,404.645L255.971,404.645c-22.804,0-41.29-18.486-41.29-41.29v-24.774
	c0-22.804,18.486-41.29,41.29-41.29l0,0c22.804,0,41.29,18.486,41.29,41.29v24.774C297.261,386.159,278.775,404.645,255.971,404.645
	z"/>
<path style="fill:#7D5046;" d="M255.97,297.29c-22.804,0-41.29,18.486-41.29,41.29v24.774c0,1.414,0.277,2.751,0.416,4.129
	c2.1-20.836,19.484-37.161,40.874-37.161s38.774,16.325,40.874,37.161c0.139-1.378,0.416-2.715,0.416-4.129V338.58
	C297.261,315.777,278.774,297.29,255.97,297.29z"/>
<g>
</g>
<g>
</g>
<g>
</g>
<g>
</g>
<g>
</g>
<g>
</g>
<g>
</g>
<g>
</g>
<g>
</g>
<g>
</g>
<g>
</g>
<g>
</g>
<g>
</g>
<g>
</g>
<g>
</g>
</svg>
