<?xml version="1.0" encoding="iso-8859-1"?>
<!-- Generator: Adobe Illustrator 19.0.0, SVG Export Plug-In . SVG Version: 6.00 Build 0)  -->
<svg version="1.1" id="Capa_1" xmlns="http://www.w3.org/2000/svg" xmlns:xlink="http://www.w3.org/1999/xlink" x="0px" y="0px"
	 viewBox="0 0 512 512" style="enable-background:new 0 0 512 512;" xml:space="preserve">
<circle style="fill:#FFE17D;" cx="250.94" cy="261.06" r="250.94"/>
<path style="fill:#FFD164;" d="M287.368,475.573c-138.591,0-250.941-112.35-250.941-250.941c0-60.017,21.096-115.09,56.242-158.272
	C36.135,112.373,0,182.485,0,261.059C0,399.65,112.35,512,250.941,512c78.575,0,148.688-36.136,194.7-92.67
	C402.459,454.476,347.385,475.573,287.368,475.573z"/>
<g>
	<path style="fill:#AA7346;" d="M161.897,271.178c-15.391,0-30.063-7.281-40.269-19.968c-3.502-4.356-2.806-10.727,1.549-14.229
		c4.348-3.51,10.735-2.806,14.229,1.549c6.427,8,15.13,12.411,24.49,12.411s18.063-4.411,24.49-12.411
		c3.502-4.356,9.874-5.059,14.229-1.549c4.356,3.502,5.051,9.874,1.549,14.229C191.96,263.897,177.289,271.178,161.897,271.178z"/>
	<path style="fill:#AA7346;" d="M340.016,271.178c-15.391,0-30.063-7.281-40.269-19.968c-3.502-4.356-2.806-10.727,1.549-14.229
		c4.356-3.51,10.727-2.806,14.229,1.549c6.427,8,15.13,12.411,24.49,12.411s18.063-4.411,24.49-12.411
		c3.502-4.356,9.874-5.059,14.229-1.549c4.356,3.502,5.051,9.874,1.549,14.229C370.079,263.897,355.407,271.178,340.016,271.178z"/>
</g>
<path style="fill:#9C6846;" d="M267.13,342.008L267.13,342.008c-13.412,0-24.285,10.873-24.285,24.285v8.095
	c0,13.412,10.873,24.285,24.285,24.285l0,0c13.412,0,24.285-10.873,24.285-24.285v-8.095
	C291.415,352.88,280.542,342.008,267.13,342.008z"/>
<g>
	<path style="fill:#8CB4EB;" d="M339.984,121.423h-13.47l21.889-32.838c2.071-3.107,2.261-7.099,0.506-10.387
		c-1.763-3.289-5.194-5.344-8.925-5.344h-32.379c-5.589,0-10.119,4.53-10.119,10.119c0,5.589,4.53,10.119,10.119,10.119h13.47
		l-21.889,32.838c-2.071,3.107-2.261,7.099-0.506,10.387c1.763,3.289,5.194,5.344,8.925,5.344h32.379
		c5.589,0,10.119-4.53,10.119-10.119C350.103,125.953,345.573,121.423,339.984,121.423z"/>
	<path style="fill:#8CB4EB;" d="M501.881,48.569h-13.47L510.3,15.731c2.071-3.107,2.261-7.099,0.506-10.387
		C509.043,2.055,505.613,0,501.881,0h-32.379c-5.589,0-10.119,4.53-10.119,10.119s4.53,10.119,10.119,10.119h13.47l-21.889,32.838
		c-2.071,3.107-2.261,7.099-0.506,10.387c1.763,3.289,5.194,5.344,8.925,5.344h32.379c5.589,0,10.119-4.53,10.119-10.119
		S507.47,48.569,501.881,48.569z"/>
	<path style="fill:#8CB4EB;" d="M447.913,97.138h-56.64l54.269-81.407c2.071-3.107,2.261-7.099,0.506-10.387
		C444.285,2.055,440.854,0,437.123,0h-64.759c-5.589,0-10.119,4.53-10.119,10.119s4.53,10.119,10.119,10.119h45.85l-54.269,81.407
		c-2.071,3.107-2.261,7.099-0.506,10.387c1.763,3.289,5.194,5.344,8.925,5.344h75.549c5.589,0,10.119-4.53,10.119-10.119
		C458.032,101.668,453.502,97.138,447.913,97.138z"/>
</g>
<path style="fill:#7D5046;" d="M267.13,342.008c-13.412,0-24.285,10.873-24.285,24.285v8.095c0,2.854,0.583,5.551,1.487,8.095
	c3.345-9.411,12.239-16.19,22.797-16.19s19.452,6.779,22.797,16.19c0.904-2.543,1.487-5.241,1.487-8.095v-8.095
	C291.415,352.88,280.542,342.008,267.13,342.008z"/>
<g>
</g>
<g>
</g>
<g>
</g>
<g>
</g>
<g>
</g>
<g>
</g>
<g>
</g>
<g>
</g>
<g>
</g>
<g>
</g>
<g>
</g>
<g>
</g>
<g>
</g>
<g>
</g>
<g>
</g>
</svg>
