<?xml version="1.0" encoding="iso-8859-1"?>
<!-- Generator: Adobe Illustrator 19.0.0, SVG Export Plug-In . SVG Version: 6.00 Build 0)  -->
<svg version="1.1" id="Capa_1" xmlns="http://www.w3.org/2000/svg" xmlns:xlink="http://www.w3.org/1999/xlink" x="0px" y="0px"
	 viewBox="0 0 512 512" style="enable-background:new 0 0 512 512;" xml:space="preserve">
<circle style="fill:#FFE17D;" cx="256" cy="256" r="256"/>
<path style="fill:#FFD164;" d="M293.161,474.839c-141.385,0-256-114.615-256-256c0-61.227,21.521-117.411,57.376-161.463
	C36.863,104.316,0,175.842,0,256c0,141.385,114.615,256,256,256c80.159,0,151.685-36.864,198.626-94.538
	C410.573,453.317,354.389,474.839,293.161,474.839z"/>
<g>
	<path style="fill:#AA7346;" d="M239.734,390.194c-27.508,0-49.839-2.581-51.008-2.718c-5.661-0.661-9.71-5.79-9.04-11.452
		c0.661-5.661,5.742-9.766,11.452-9.048c42.637,4.984,132.25,5.589,137.258-24.476c0.944-5.629,6.25-9.387,11.879-8.492
		c5.629,0.944,9.427,6.258,8.492,11.879c-4.331,25.952-33.605,40.653-87.016,43.71C254.25,390.024,246.823,390.194,239.734,390.194z
		"/>
	<path style="fill:#AA7346;" d="M90.831,233.29c-2.331,0-4.669-0.782-6.597-2.395c-4.387-3.645-4.976-10.153-1.323-14.532
		c45.073-54.089,107.242-37.089,109.863-36.355c5.476,1.565,8.653,7.282,7.089,12.766c-1.573,5.468-7.226,8.645-12.734,7.097
		c-2.137-0.605-52.081-13.831-88.363,29.702C96.726,232.024,93.79,233.29,90.831,233.29z"/>
	<path style="fill:#AA7346;" d="M421.177,233.29c-2.96,0-5.895-1.266-7.935-3.718c-36.298-43.532-86.258-30.282-88.371-29.702
		c-5.427,1.516-11.177-1.661-12.718-7.137s1.613-11.161,7.081-12.726c2.621-0.742,64.798-17.742,109.863,36.355
		c3.653,4.379,3.065,10.887-1.323,14.532C425.847,232.508,423.508,233.29,421.177,233.29z"/>
</g>
<path style="fill:#7D5046;" d="M177.548,280.774L177.548,280.774c-11.402,0-20.645-9.243-20.645-20.645v-20.645h41.29v20.645
	C198.194,271.531,188.95,280.774,177.548,280.774z"/>
<path style="fill:#9C6846;" d="M173.419,251.871c0,6.841,5.546,12.387,12.387,12.387c6.841,0,12.387-5.546,12.387-12.387v-12.387
	h-24.774L173.419,251.871L173.419,251.871z"/>
<path style="fill:#7D5046;" d="M367.484,280.774L367.484,280.774c-11.402,0-20.645-9.243-20.645-20.645v-20.645h41.29v20.645
	C388.129,271.531,378.886,280.774,367.484,280.774z"/>
<path style="fill:#9C6846;" d="M363.355,251.871c0,6.841,5.546,12.387,12.387,12.387s12.387-5.546,12.387-12.387v-12.387h-24.774
	V251.871z"/>
<g>
	<path style="fill:#7D5046;" d="M123.863,256c-3.702,0-7.065-2.5-8-6.258c-1.113-4.419,1.581-8.903,6.008-10.008
		c1.387-0.347,34.5-8.508,76.323-8.508c4.565,0,8.258,3.694,8.258,8.258s-3.694,8.258-8.258,8.258c-39.815,0-72,7.927-72.323,8.008
		C125.202,255.919,124.524,256,123.863,256z"/>
	<path style="fill:#7D5046;" d="M388.121,256c-0.661,0-1.331-0.081-2-0.242c-0.323-0.081-32.629-8.016-72.315-8.016
		c-4.565,0-8.258-3.694-8.258-8.258s3.694-8.258,8.258-8.258c41.815,0,74.927,8.161,76.315,8.508
		c4.427,1.105,7.113,5.581,6.008,10.008C395.194,253.492,391.823,256,388.121,256z"/>
</g>
<g>
</g>
<g>
</g>
<g>
</g>
<g>
</g>
<g>
</g>
<g>
</g>
<g>
</g>
<g>
</g>
<g>
</g>
<g>
</g>
<g>
</g>
<g>
</g>
<g>
</g>
<g>
</g>
<g>
</g>
</svg>
