<?xml version="1.0" encoding="iso-8859-1"?>
<!-- Generator: Adobe Illustrator 19.0.0, SVG Export Plug-In . SVG Version: 6.00 Build 0)  -->
<svg version="1.1" id="Capa_1" xmlns="http://www.w3.org/2000/svg" xmlns:xlink="http://www.w3.org/1999/xlink" x="0px" y="0px"
	 viewBox="0 0 512 512" style="enable-background:new 0 0 512 512;" xml:space="preserve">
<circle style="fill:#FFE17D;" cx="256" cy="256" r="256"/>
<g>
	<circle style="fill:#FFFFFF;" cx="172.47" cy="206.45" r="33.03"/>
	<circle style="fill:#FFFFFF;" cx="329.38" cy="181.68" r="74.32"/>
</g>
<path style="fill:#9C6846;" d="M255.054,305.305c-49.323,0-96.405-5.727-139.598-16.079c-5.595-1.341-10.417,4.504-8.691,10.596
	c19.92,70.324,78.718,121.34,148.29,121.34s128.369-51.016,148.29-121.34c1.726-6.092-3.096-11.937-8.691-10.596
	C351.459,299.578,304.378,305.305,255.054,305.305z"/>
<path style="fill:#7D5046;" d="M394.653,289.226c-43.194,10.352-90.275,16.079-139.599,16.079s-96.405-5.726-139.598-16.079
	c-5.595-1.341-10.417,4.504-8.691,10.596c5.214,18.408,13.148,35.443,23.186,50.637c41.04,7.796,82.792,12.085,125.121,12.085
	c42.315,0,84.051-4.286,125.079-12.076c10.041-15.196,17.978-32.233,23.193-50.645C405.07,293.729,400.248,287.885,394.653,289.226z
	"/>
<path style="fill:#E6646E;" d="M380.158,324.068l-18.135-18.135l-135.428,28.074l71.812,71.812c22.575,22.575,59.176,22.575,81.75,0
	v-0.001C402.733,383.244,402.733,346.643,380.158,324.068z"/>
<path style="fill:#DC4655;" d="M388.938,335.459c-2.41-4.053-5.292-7.903-8.78-11.391l-18.135-18.135l-135.428,28.074l28.534,28.534
	c19.269-0.002,38.413-0.926,57.429-2.636c2.422-0.218,4.809,0.638,6.528,2.358l17.273,17.276c2.419,2.419,5.589,3.629,8.758,3.629
	c3.487,0,6.973-1.464,9.461-4.392c4.276-5.032,3.333-12.716-1.336-17.386l-5.561-5.561c5.471-0.779,10.932-1.615,16.381-2.514
	c10.531-1.737,19.785-8.276,24.791-17.703L388.938,335.459z"/>
<path style="fill:#FFFFFF;" d="M366.103,317.428c4.464-7.649,8.199-15.845,11.331-24.377
	c-38.384,7.921-79.532,12.253-122.379,12.253c-42.873,0-84.044-4.336-122.448-12.267c3.148,8.573,6.944,16.784,11.438,24.465
	c5.195,8.88,13.99,14.56,23.558,15.724c28.649,3.485,57.847,5.354,87.452,5.354c29.599,0,58.79-1.868,87.433-5.352
	C352.087,332.061,360.899,326.344,366.103,317.428z"/>
<path style="fill:#FFD164;" d="M293.161,474.839c-141.385,0-256-114.615-256-256c0-61.227,21.521-117.411,57.376-161.463
	C36.863,104.316,0,175.842,0,256c0,141.385,114.615,256,256,256c80.159,0,151.685-36.864,198.626-94.538
	C410.573,453.317,354.389,474.839,293.161,474.839z"/>
<g>
	<path style="fill:#5A4650;" d="M172.474,220.903c-5.702,0-10.323-4.621-10.323-10.323v-8.258c0-5.702,4.621-10.323,10.323-10.323
		s10.323,4.621,10.323,10.323v8.258C182.796,216.282,178.175,220.903,172.474,220.903z"/>
	<path style="fill:#5A4650;" d="M329.377,206.452c-9.121,0-16.516-7.395-16.516-16.516V173.42c0-9.121,7.395-16.516,16.516-16.516
		s16.516,7.395,16.516,16.516v16.516C345.893,199.056,338.498,206.452,329.377,206.452z"/>
</g>
<g>
</g>
<g>
</g>
<g>
</g>
<g>
</g>
<g>
</g>
<g>
</g>
<g>
</g>
<g>
</g>
<g>
</g>
<g>
</g>
<g>
</g>
<g>
</g>
<g>
</g>
<g>
</g>
<g>
</g>
</svg>
